<svg xmlns="http://www.w3.org/2000/svg" viewBox="0 0 19 19"><title>Audio</title><g id="Layer_2" data-name="Layer 2"><g id="Layer_1-2" data-name="Layer 1"><g id="Layer_1-2-2" data-name="Layer 1-2"><circle cx="9.5" cy="9.5" r="9.5" style="fill:#c1272d"/></g><path d="M9.5,1.64A7.89,7.89,0,0,0,2.6,13.29V11.2a1.68,1.68,0,0,1,.38-1q0-.31,0-.63A6.55,6.55,0,1,1,16,10.22a1.67,1.67,0,0,1,.33,1v2.19A7.89,7.89,0,0,0,9.5,1.64Zm0,0" style="fill:#fff"/><path d="M3.08,10.86A1.15,1.15,0,0,0,3,11.2v2.94c0,.91,1.08,1.65,2.42,1.65h1V9.55h-1a2.38,2.38,0,0,0-2.37,1.31Zm0,0" style="fill:#fff"/><path d="M15.91,14.15V11.2a1.14,1.14,0,0,0,0-.21,2.29,2.29,0,0,0-2.4-1.44h-1v6.24h1c1.34,0,2.42-.74,2.42-1.65Zm0,0" style="fill:#fff"/></g></g></svg>