<svg xmlns="http://www.w3.org/2000/svg" viewBox="0 0 194.01 146.84"><title>Trust acting</title><g id="Layer_2" data-name="Layer 2"><g id="Layer_1-2" data-name="Layer 1"><path d="M3,121.84s28,12,51,16,59,6,88,7,50,1,50,1v1s-70-1-95-2-58-6-73-12-21-8.11-23-9.05S3,121.84,3,121.84Z" style="fill:#87ce04"/><text transform="translate(53.4 132.96) rotate(8.63)" style="font-size:10px;font-family:CenturyGothic, Century Gothic">S</text><text transform="translate(58.33 133.71) rotate(8.36)" style="font-size:10px;font-family:CenturyGothic, Century Gothic">I</text><text transform="translate(60.56 134.04) rotate(8.18)" style="font-size:10px;font-family:CenturyGothic, Century Gothic"> </text><text transform="translate(63.29 134.43) rotate(7.87)" style="font-size:10px;font-family:CenturyGothic, Century Gothic">U</text><text transform="matrix(0.99, 0.13, -0.13, 0.99, 69.76, 135.33)" style="font-size:10px;font-family:CenturyGothic, Century Gothic">n</text><text transform="translate(75.81 136.11) rotate(7.19)" style="font-size:10px;font-family:CenturyGothic, Century Gothic">i</text><text transform="matrix(0.99, 0.12, -0.12, 0.99, 77.79, 136.36)" style="font-size:10px;font-family:CenturyGothic, Century Gothic">t</text><text transform="matrix(0.99, 0.12, -0.12, 0.99, 81.15, 136.78)" style="font-size:10px;font-family:CenturyGothic, Century Gothic">:</text><text transform="matrix(0.99, 0.11, -0.11, 0.99, 83.9, 137.1)" style="font-size:10px;font-family:CenturyGothic, Century Gothic"> </text><text transform="translate(86.64 137.43) rotate(6.22)" style="font-size:10px;font-family:CenturyGothic, Century Gothic">N</text><text transform="translate(93.97 138.23) rotate(5.54)" style="font-size:10px;font-family:CenturyGothic, Century Gothic">m</text><text transform="translate(103.57 135.8) rotate(4.97) scale(0.58)" style="font-size:10px;font-family:CenturyGothic, Century Gothic">2</text><text transform="translate(106.49 139.4) rotate(4.68)" style="font-size:10px;font-family:CenturyGothic, Century Gothic"> </text><text transform="translate(109.25 139.63) rotate(4.19)" style="font-size:10px;font-family:CenturyGothic, Century Gothic">o</text><text transform="translate(115.75 140.1) rotate(3.65)" style="font-size:10px;font-family:CenturyGothic, Century Gothic">r</text><text transform="translate(118.76 140.29) rotate(3.31)" style="font-size:10px;font-family:CenturyGothic, Century Gothic"> </text><text transform="translate(121.5 140.46) rotate(3.1)" style="font-size:10px;font-family:CenturyGothic, Century Gothic">P</text><text transform="matrix(1, 0.05, -0.05, 1, 127.43, 140.78)" style="font-size:10px;font-family:CenturyGothic, Century Gothic">a</text><text transform="translate(134.22 141.1) rotate(2.52)" style="font-size:10px;font-family:CenturyGothic, Century Gothic">s</text><text transform="translate(138.11 141.28) rotate(2.28)" style="font-size:10px;font-family:CenturyGothic, Century Gothic">c</text><text transform="translate(144.56 141.54) rotate(1.97)" style="font-size:10px;font-family:CenturyGothic, Century Gothic">a</text><text transform="translate(151.38 141.77) rotate(1.77)" style="font-size:10px;font-family:CenturyGothic, Century Gothic">l</text><text transform="translate(153.37 141.83) rotate(1.66)" style="font-size:10px;font-family:CenturyGothic, Century Gothic"> </text><text transform="matrix(1, 0.03, -0.03, 1, 156.14, 141.91)" style="font-size:10px;font-family:CenturyGothic, Century Gothic">(</text><text transform="translate(159.83 142.01) rotate(1.29)" style="font-size:10px;font-family:CenturyGothic, Century Gothic">P</text><text transform="translate(165.75 142.15) rotate(0.99)" style="font-size:10px;font-family:CenturyGothic, Century Gothic">a</text><text transform="matrix(1, 0.01, -0.01, 1, 172.57, 142.26)" style="font-size:10px;font-family:CenturyGothic, Century Gothic">)</text><path d="M1,121.84a597.85,597.85,0,0,1,89-34c51-15,85-23,93-26s10-4,11-2-56,17-79,24-61,19-79,26S4.81,123,2.9,123.43,1,121.84,1,121.84Z" style="fill:#87ce04"/><text transform="matrix(0.96, -0.29, 0.29, 0.96, 79.18, 84.89)" style="font-size:10px;font-family:CenturyGothic, Century Gothic">P<tspan x="5.92" y="0" style="letter-spacing:-0.00390625em">r</tspan><tspan x="8.89" y="0">essu</tspan><tspan x="29.23" y="0" style="letter-spacing:-0.00390625em">r</tspan><tspan x="32.2" y="0">e =</tspan></text><text transform="matrix(0.96, -0.29, 0.29, 0.96, 154.68, 61.64)" style="font-size:10px;font-family:CenturyGothic, Century Gothic">=</text><text transform="matrix(0.96, -0.29, 0.29, 0.96, 124.33, 64.18)" style="font-size:10px;font-family:CenturyGothic, Century Gothic">Thrust</text><text transform="matrix(0.96, -0.29, 0.29, 0.96, 129.01, 74.25)" style="font-size:10px;font-family:CenturyGothic, Century Gothic">A<tspan x="7.4" y="0" style="letter-spacing:-0.00390625em">r</tspan><tspan x="10.37" y="0">ea</tspan></text><line x1="125.55" y1="66.42" x2="151.35" y2="58.48" style="fill:none;stroke:#000;stroke-miterlimit:10"/><text transform="matrix(0.96, -0.29, 0.29, 0.96, 162.2, 52.53)" style="font-size:10px;font-family:CenturyGothic, Century Gothic">F</text><text transform="matrix(0.96, -0.29, 0.29, 0.96, 164.22, 63.41)" style="font-size:10px;font-family:CenturyGothic, Century Gothic">A</text><line x1="161.43" y1="55.38" x2="169.07" y2="53.02" style="fill:none;stroke:#000;stroke-miterlimit:10"/><path d="M0,120.84s14-33,33-57,53-41,89-47,67-4,68-3-5,1-11,1-31-1-54,4-39,5-78,36a133,133,0,0,0-31,42c-12,26-12,25-13,25A10.07,10.07,0,0,1,0,120.84Z" style="fill:#87ce04"/><text transform="translate(62.22 34.53) rotate(-29.06)" style="font-size:10px;font-family:CenturyGothic, Century Gothic">T</text><text transform="translate(65.65 32.63) rotate(-28.2)" style="font-size:10px;font-family:CenturyGothic, Century Gothic">r</text><text transform="matrix(0.89, -0.46, 0.46, 0.89, 68.26, 31.2)" style="font-size:10px;font-family:CenturyGothic, Century Gothic">u</text><text transform="matrix(0.9, -0.44, 0.44, 0.9, 73.66, 28.46)" style="font-size:10px;font-family:CenturyGothic, Century Gothic">s</text><text transform="matrix(0.91, -0.42, 0.42, 0.91, 77.11, 26.79)" style="font-size:10px;font-family:CenturyGothic, Century Gothic">t</text><text transform="translate(80.17 25.37) rotate(-24.2)" style="font-size:10px;font-family:CenturyGothic, Century Gothic"> </text><text transform="translate(82.64 24.23) rotate(-22.96)" style="font-size:10px;font-family:CenturyGothic, Century Gothic">a</text><text transform="matrix(0.93, -0.36, 0.36, 0.93, 88.87, 21.59)" style="font-size:10px;font-family:CenturyGothic, Century Gothic">c</text><text transform="translate(94.89 19.28) rotate(-19.69)" style="font-size:10px;font-family:CenturyGothic, Century Gothic">t</text><text transform="translate(98.05 18.16) rotate(-18.86)" style="font-size:10px;font-family:CenturyGothic, Century Gothic">i</text><text transform="translate(99.9 17.5) rotate(-17.53)" style="font-size:10px;font-family:CenturyGothic, Century Gothic">n</text><text transform="translate(105.63 15.68) rotate(-15.25)" style="font-size:10px;font-family:CenturyGothic, Century Gothic">g</text><text transform="translate(112.09 13.95) rotate(-13.38)" style="font-size:10px;font-family:CenturyGothic, Century Gothic"> </text><text transform="matrix(0.98, -0.2, 0.2, 0.98, 114.7, 13.29)" style="font-size:10px;font-family:CenturyGothic, Century Gothic">o</text><text transform="translate(121.07 12.02) rotate(-9.22)" style="font-size:10px;font-family:CenturyGothic, Century Gothic">n</text><text transform="translate(127.05 11.07) rotate(-7.98)" style="font-size:10px;font-family:CenturyGothic, Century Gothic"> </text><text transform="translate(129.75 10.68) rotate(-6.81)" style="font-size:10px;font-family:CenturyGothic, Century Gothic">u</text><text transform="translate(135.74 9.96) rotate(-5.31)" style="font-size:10px;font-family:CenturyGothic, Century Gothic">n</text><text transform="matrix(1, -0.08, 0.08, 1, 141.78, 9.42)" style="font-size:10px;font-family:CenturyGothic, Century Gothic">i</text><text transform="translate(143.78 9.26) rotate(-3.74)" style="font-size:10px;font-family:CenturyGothic, Century Gothic">t</text><text transform="translate(147.12 9.05) rotate(-3.07)" style="font-size:10px;font-family:CenturyGothic, Century Gothic"> </text><text transform="translate(149.84 8.88) rotate(-2.04)" style="font-size:10px;font-family:CenturyGothic, Century Gothic">a</text><text transform="translate(156.65 8.66) rotate(-1.01)" style="font-size:10px;font-family:CenturyGothic, Century Gothic">r</text><text transform="translate(159.58 8.59) rotate(-0.04)" style="font-size:10px;font-family:CenturyGothic, Century Gothic">e</text><text transform="translate(166.04 8.58) rotate(1.36)" style="font-size:10px;font-family:CenturyGothic, Century Gothic">a</text></g></g></svg>