<svg xmlns="http://www.w3.org/2000/svg" viewBox="0 0 208.19 101.89"><title>artmosphere (atm) = 1,01105 Pa</title><g id="Layer_2" data-name="Layer 2"><g id="Layer_1-2" data-name="Layer 1"><path d="M0,56.25s20,25,68,37,103,8,103,8,4-3,0-3-24,3-42,1-58-5-76-13-32-16-38-21S2.24,55.66,2.24,55.66Z" style="fill:#ff6203"/><text transform="matrix(0.99, 0.17, -0.17, 0.99, 91.13, 89.12)" style="font-size:10px;font-family:CenturyGothic, Century Gothic">1</text><text transform="translate(96.67 90.02) rotate(8.13)" style="font-size:10px;font-family:CenturyGothic, Century Gothic"> </text><text transform="matrix(0.99, 0.13, -0.13, 0.99, 99.36, 90.41)" style="font-size:10px;font-family:CenturyGothic, Century Gothic">t</text><text transform="translate(102.69 90.86) rotate(6.11)" style="font-size:10px;font-family:CenturyGothic, Century Gothic">a</text><text transform="matrix(1, 0.09, -0.09, 1, 109.46, 91.56)" style="font-size:10px;font-family:CenturyGothic, Century Gothic">r</text><text transform="translate(112.44 91.83) rotate(4.54)" style="font-size:10px;font-family:CenturyGothic, Century Gothic">r</text><text transform="translate(115.41 92.06) rotate(4.03)" style="font-size:10px;font-family:CenturyGothic, Century Gothic"> </text><text transform="translate(118.16 92.27) rotate(3.28)" style="font-size:10px;font-family:CenturyGothic, Century Gothic">=</text><text transform="matrix(1, 0.05, -0.05, 1, 124.2, 92.6)" style="font-size:10px;font-family:CenturyGothic, Century Gothic"> </text><text transform="matrix(1, 0.04, -0.04, 1, 126.96, 92.73)" style="font-size:10px;font-family:CenturyGothic, Century Gothic">1</text><text transform="translate(132.5 92.94) rotate(2.1)" style="font-size:10px;font-family:CenturyGothic, Century Gothic">3</text><text transform="matrix(1, 0.03, -0.03, 1, 138.02, 93.15)" style="font-size:10px;font-family:CenturyGothic, Century Gothic">3</text><text transform="translate(143.57 93.33) rotate(1.79)" style="font-size:10px;font-family:CenturyGothic, Century Gothic"> </text><text transform="translate(146.33 93.42) rotate(1.6)" style="font-size:10px;font-family:CenturyGothic, Century Gothic">P</text><text transform="translate(152.22 93.59) rotate(1.2)" style="font-size:10px;font-family:CenturyGothic, Century Gothic">a</text><path d="M0,54.25s82-1,110-1,53-1,54,1-9,1-9,1-73-1-95,0-56.83,1-56.83,1Z" style="fill:#ff6203"/><text transform="translate(81.75 48.37)" style="font-size:10px;font-family:CenturyGothic, Century Gothic">1 bar = 105 Pa</text><path d="M1.37,53.79S35,29.25,71,21.25s83-8,101-8,35-1,36,0-2,1-9,1-84,3-97,5-44,6-68,19-27,18-30,18S1.37,53.79,1.37,53.79Z" style="fill:#ff6203"/><text transform="matrix(0.95, -0.3, 0.3, 0.95, 40.03, 26.51)" style="font-size:10px;font-family:CenturyGothic, Century Gothic">a</text><text transform="translate(46.5 24.49) rotate(-16.47)" style="font-size:10px;font-family:CenturyGothic, Century Gothic">r</text><text transform="matrix(0.96, -0.27, 0.27, 0.96, 49.39, 23.63)" style="font-size:10px;font-family:CenturyGothic, Century Gothic">t</text><text transform="translate(52.6 22.69) rotate(-14.78)" style="font-size:10px;font-family:CenturyGothic, Century Gothic">m</text><text transform="translate(61.63 20.33) rotate(-13.48)" style="font-size:10px;font-family:CenturyGothic, Century Gothic">o</text><text transform="matrix(0.98, -0.22, 0.22, 0.98, 67.98, 18.81)" style="font-size:10px;font-family:CenturyGothic, Century Gothic">s</text><text transform="translate(71.75 17.96) rotate(-11.8)" style="font-size:10px;font-family:CenturyGothic, Century Gothic">p</text><text transform="translate(78.37 16.58) rotate(-10.77)" style="font-size:10px;font-family:CenturyGothic, Century Gothic">h</text><text transform="translate(84.35 15.44) rotate(-9.76)" style="font-size:10px;font-family:CenturyGothic, Century Gothic">e</text><text transform="translate(90.72 14.35) rotate(-8.98)" style="font-size:10px;font-family:CenturyGothic, Century Gothic">r</text><text transform="translate(93.62 13.88) rotate(-8.2)" style="font-size:10px;font-family:CenturyGothic, Century Gothic">e</text><text transform="translate(100.05 12.97) rotate(-7.41)" style="font-size:10px;font-family:CenturyGothic, Century Gothic"> </text><text transform="matrix(0.99, -0.12, 0.12, 0.99, 102.76, 12.61)" style="font-size:10px;font-family:CenturyGothic, Century Gothic">(</text><text transform="translate(106.39 12.16) rotate(-5.94)" style="font-size:10px;font-family:CenturyGothic, Century Gothic">a</text><text transform="matrix(1, -0.09, 0.09, 1, 113.17, 11.47)" style="font-size:10px;font-family:CenturyGothic, Century Gothic">t</text><text transform="translate(116.52 11.15) rotate(-3.85)" style="font-size:10px;font-family:CenturyGothic, Century Gothic">m</text><text transform="translate(125.85 10.54) rotate(-3.33)" style="font-size:10px;font-family:CenturyGothic, Century Gothic">)</text><text transform="matrix(1, -0.06, 0.06, 1, 129.52, 10.33)" style="font-size:10px;font-family:CenturyGothic, Century Gothic"> </text><text transform="translate(132.3 10.17) rotate(-2.97)" style="font-size:10px;font-family:CenturyGothic, Century Gothic">=</text><text transform="translate(138.33 9.86) rotate(-2.75)" style="font-size:10px;font-family:CenturyGothic, Century Gothic"> </text><text transform="translate(141.11 9.73) rotate(-2.55)" style="font-size:10px;font-family:CenturyGothic, Century Gothic">1</text><text transform="translate(146.64 9.48) rotate(-2.34)" style="font-size:10px;font-family:CenturyGothic, Century Gothic">,</text><text transform="matrix(1, -0.04, 0.04, 1, 149.37, 9.37)" style="font-size:10px;font-family:CenturyGothic, Century Gothic">0</text><text transform="translate(154.91 9.16) rotate(-1.83)" style="font-size:10px;font-family:CenturyGothic, Century Gothic">1</text><text transform="matrix(1, -0.03, 0.03, 1, 160.44, 8.99)" style="font-size:10px;font-family:CenturyGothic, Century Gothic">1</text><text transform="translate(165.96 8.84) rotate(-1.2)" style="font-size:10px;font-family:CenturyGothic, Century Gothic">0</text><text transform="matrix(1, -0.01, 0.01, 1, 171.5, 8.72)" style="font-size:10px;font-family:CenturyGothic, Century Gothic">5</text><text transform="translate(177.03 8.64) rotate(-0.58)" style="font-size:10px;font-family:CenturyGothic, Century Gothic"> </text><text transform="translate(179.79 8.61) rotate(-0.27)" style="font-size:10px;font-family:CenturyGothic, Century Gothic">P</text><text transform="translate(185.71 8.58) rotate(0.25)" style="font-size:10px;font-family:CenturyGothic, Century Gothic">a</text></g></g></svg>