<svg xmlns="http://www.w3.org/2000/svg" viewBox="0 0 162 61.46"><title>used</title><g id="Layer_2" data-name="Layer 2"><g id="Layer_1-2" data-name="Layer 1"><path d="M0,13.09v2s62-1,86,4,40,9,57,21l17,12,2-3s-31-24-63-30c-31.7-5.94-52-6-75-6Z" style="fill:#02a637"/><path d="M157.58,48.9S137,55.09,123,56.09s-74,2-79,2-6,2-4,3,82,0,95-3,24-5,25-6S157.58,48.9,157.58,48.9Z" style="fill:#02a637"/><text transform="matrix(1, 0.01, -0.01, 1, 11.38, 8.58)" style="font-size:10px;font-family:CenturyGothic, Century Gothic">U</text><text transform="matrix(1, 0.01, -0.01, 1, 17.91, 8.63)" style="font-size:10px;font-family:CenturyGothic, Century Gothic">s</text><text transform="translate(21.79 8.67) rotate(0.9)" style="font-size:10px;font-family:CenturyGothic, Century Gothic">e</text><text transform="translate(28.27 8.77) rotate(1.23)" style="font-size:10px;font-family:CenturyGothic, Century Gothic">d</text><text transform="translate(35.11 8.92) rotate(1.49)" style="font-size:10px;font-family:CenturyGothic, Century Gothic"> </text><text transform="translate(37.87 9) rotate(1.67)" style="font-size:10px;font-family:CenturyGothic, Century Gothic">t</text><text transform="matrix(1, 0.03, -0.03, 1, 41.26, 9.09)" style="font-size:10px;font-family:CenturyGothic, Century Gothic">o</text><text transform="matrix(1, 0.04, -0.04, 1, 47.79, 9.32)" style="font-size:10px;font-family:CenturyGothic, Century Gothic"> </text><text transform="matrix(1, 0.04, -0.04, 1, 50.57, 9.43)" style="font-size:10px;font-family:CenturyGothic, Century Gothic">l</text><text transform="matrix(1, 0.05, -0.05, 1, 52.56, 9.52)" style="font-size:10px;font-family:CenturyGothic, Century Gothic">i</text><text transform="matrix(1, 0.05, -0.05, 1, 54.54, 9.61)" style="font-size:10px;font-family:CenturyGothic, Century Gothic">f</text><text transform="translate(57.67 9.78) rotate(3.32)" style="font-size:10px;font-family:CenturyGothic, Century Gothic">t</text><text transform="translate(61.04 9.97) rotate(3.72)" style="font-size:10px;font-family:CenturyGothic, Century Gothic"> </text><text transform="matrix(1, 0.08, -0.08, 1, 63.79, 10.14)" style="font-size:10px;font-family:CenturyGothic, Century Gothic">h</text><text transform="translate(69.81 10.6) rotate(5.88)" style="font-size:10px;font-family:CenturyGothic, Century Gothic">e</text><text transform="translate(76.2 11.24) rotate(8.44)" style="font-size:10px;font-family:CenturyGothic, Century Gothic">a</text><text transform="translate(82.92 12.25) rotate(9.9)" style="font-size:10px;font-family:CenturyGothic, Century Gothic">v</text><text transform="translate(88.35 13.2) rotate(10.92)" style="font-size:10px;font-family:CenturyGothic, Century Gothic">y</text><text transform="translate(93.59 14.22) rotate(11.57)" style="font-size:10px;font-family:CenturyGothic, Century Gothic"> </text><text transform="matrix(0.98, 0.21, -0.21, 0.98, 96.28, 14.77)" style="font-size:10px;font-family:CenturyGothic, Century Gothic">l</text><text transform="matrix(0.98, 0.22, -0.22, 0.98, 98.24, 15.17)" style="font-size:10px;font-family:CenturyGothic, Century Gothic">o</text><text transform="translate(104.6 16.58) rotate(13.28)" style="font-size:10px;font-family:CenturyGothic, Century Gothic">o</text><text transform="translate(110.95 18.08) rotate(14.03)" style="font-size:10px;font-family:CenturyGothic, Century Gothic">d</text><text transform="translate(117.57 19.74) rotate(14.64)" style="font-size:10px;font-family:CenturyGothic, Century Gothic">s</text><text transform="translate(59.36 42.82)" style="font-size:10px;font-family:CenturyGothic, Century Gothic">F1</text><text transform="translate(58.09 53.82)" style="font-size:10px;font-family:CenturyGothic, Century Gothic">A1</text><line x1="59" y1="44.57" x2="70" y2="44.57" style="fill:none;stroke:#000;stroke-miterlimit:10"/><text transform="translate(85.69 42.82)" style="font-size:10px;font-family:CenturyGothic, Century Gothic">F2</text><text transform="translate(75.19 48.57)" style="font-size:10px;font-family:CenturyGothic, Century Gothic">=</text><text transform="translate(84.42 53.82)" style="font-size:10px;font-family:CenturyGothic, Century Gothic">A2</text><line x1="85.33" y1="44.57" x2="96.33" y2="44.57" style="fill:none;stroke:#000;stroke-miterlimit:10"/></g></g></svg>