<svg xmlns="http://www.w3.org/2000/svg" xmlns:xlink="http://www.w3.org/1999/xlink" viewBox="0 0 588.21 434"><defs><linearGradient id="linear-gradient" x1="330.61" y1="237.36" x2="340.28" y2="251.36" gradientUnits="userSpaceOnUse"><stop offset="0" stop-color="#f15a24"/><stop offset="1" stop-color="#ff0"/></linearGradient></defs><title>Hydraulics</title><g id="Layer_2" data-name="Layer 2"><g id="Layer_1-2" data-name="Layer 1"><path d="M294.71,249.29s24-44,47-106,42-78,58-98,49-38,53-39,2,3,1,4-41,25-61,57-39,83-55,132-24,50-24,50Z" style="fill:#ca1d33"/><text transform="matrix(0.67, -0.74, 0.74, 0.67, 381.22, 50.49)" style="font-size:10px;font-family:CenturyGothic-Bold, Century Gothic;font-weight:700">H</text><text transform="translate(385.79 45.46) rotate(-47.09)" style="font-size:10px;font-family:CenturyGothic-Bold, Century Gothic;font-weight:700">y</text><text transform="translate(389.73 41.22) rotate(-46.4)" style="font-size:10px;font-family:CenturyGothic-Bold, Century Gothic;font-weight:700">d</text><text transform="matrix(0.7, -0.72, 0.72, 0.7, 394.27, 36.47)" style="font-size:10px;font-family:CenturyGothic-Bold, Century Gothic;font-weight:700">r</text><text transform="translate(396.47 34.18) rotate(-45.06)" style="font-size:10px;font-family:CenturyGothic-Bold, Century Gothic;font-weight:700">a</text><text transform="matrix(0.72, -0.69, 0.69, 0.72, 401.1, 29.54)" style="font-size:10px;font-family:CenturyGothic-Bold, Century Gothic;font-weight:700">u</text><text transform="matrix(0.73, -0.68, 0.68, 0.73, 405.42, 25.41)" style="font-size:10px;font-family:CenturyGothic-Bold, Century Gothic;font-weight:700">l</text><text transform="matrix(0.74, -0.67, 0.67, 0.74, 407.15, 23.8)" style="font-size:10px;font-family:CenturyGothic-Bold, Century Gothic;font-weight:700">i</text><text transform="translate(408.87 22.2) rotate(-40.47)" style="font-size:10px;font-family:CenturyGothic-Bold, Century Gothic;font-weight:700">c</text><text transform="translate(413.68 18.11) rotate(-37.12)" style="font-size:10px;font-family:CenturyGothic-Bold, Century Gothic;font-weight:700">s</text><text transform="matrix(0.81, -0.58, 0.58, 0.81, 417.17, 15.5)" style="font-size:10px;font-family:CenturyGothic-Bold, Century Gothic;font-weight:700"> </text><path d="M586,128.38c-5.93.3-10.26.6-12.25.91-13,2-73,10-95,22s-39,20-73,58-39,43-39,43l-19,14-12-12s37-24,81-71,120-53,145-56c5-.6,13.59-1.15,24.25-1.65,0,0,2.25-.49,2.25,1.13S586,128.38,586,128.38Z" style="fill:#027dc8"/><text transform="translate(483.61 137.4) rotate(-16.96)" style="font-size:10px;font-family:CenturyGothic-Bold, Century Gothic;font-weight:700">T</text><text transform="translate(487.61 136.18) rotate(-16.56)" style="font-size:10px;font-family:CenturyGothic-Bold, Century Gothic;font-weight:700">r</text><text transform="translate(490.65 135.27) rotate(-16.08)" style="font-size:10px;font-family:CenturyGothic-Bold, Century Gothic;font-weight:700">u</text><text transform="translate(496.41 133.62) rotate(-15.5)" style="font-size:10px;font-family:CenturyGothic-Bold, Century Gothic;font-weight:700">s</text><text transform="translate(500.64 132.45) rotate(-15.04)" style="font-size:10px;font-family:CenturyGothic-Bold, Century Gothic;font-weight:700">t</text><path d="M356.71,276.29s99-7,114-10,80-1,82-1,2,2,1,3-4,1-4,1-76,4-95,8-68,12-81,14-17,2-17,2Z" style="fill:#87ce04"/><text transform="translate(490.87 260.12)" style="font-size:10px;font-family:CenturyGothic-Bold, Century Gothic;font-weight:700">Pressure</text><path d="M356.71,295.29v19s30,8,54,23,71,40,89,44,29,9,55,11,28,2,28,0-6-3-11-3-45-3-83-22-68-41-90-54A176.21,176.21,0,0,0,356.71,295.29Z" style="fill:#ff6203"/><text transform="matrix(0.84, 0.54, -0.54, 0.84, 441.26, 333.78)" style="font-size:10px;font-family:CenturyGothic-Bold, Century Gothic;font-weight:700">P</text><text transform="translate(445.95 336.82) rotate(32.76)" style="font-size:10px;font-family:CenturyGothic-Bold, Century Gothic;font-weight:700">r</text><text transform="translate(448.63 338.55) rotate(32.56)" style="font-size:10px;font-family:CenturyGothic-Bold, Century Gothic;font-weight:700">a</text><text transform="translate(454.2 342.11) rotate(32.28)" style="font-size:10px;font-family:CenturyGothic-Bold, Century Gothic;font-weight:700">c</text><text transform="translate(459.6 345.51) rotate(32.06)" style="font-size:10px;font-family:CenturyGothic-Bold, Century Gothic;font-weight:700">t</text><text transform="matrix(0.85, 0.53, -0.53, 0.85, 462.16, 347.12)" style="font-size:10px;font-family:CenturyGothic-Bold, Century Gothic;font-weight:700">i</text><text transform="translate(464.18 348.38) rotate(31.66)" style="font-size:10px;font-family:CenturyGothic-Bold, Century Gothic;font-weight:700">c</text><text transform="matrix(0.86, 0.52, -0.52, 0.86, 469.61, 351.73)" style="font-size:10px;font-family:CenturyGothic-Bold, Century Gothic;font-weight:700">a</text><text transform="translate(475.24 355.14) rotate(30.84)" style="font-size:10px;font-family:CenturyGothic-Bold, Century Gothic;font-weight:700">l</text><text transform="matrix(0.86, 0.51, -0.51, 0.86, 477.3, 356.36)" style="font-size:10px;font-family:CenturyGothic-Bold, Century Gothic;font-weight:700"> </text><text transform="matrix(0.87, 0.5, -0.5, 0.87, 479.69, 357.79)" style="font-size:10px;font-family:CenturyGothic-Bold, Century Gothic;font-weight:700">U</text><text transform="translate(485.2 360.98) rotate(28.96)" style="font-size:10px;font-family:CenturyGothic-Bold, Century Gothic;font-weight:700">n</text><text transform="translate(490.48 363.88) rotate(27.81)" style="font-size:10px;font-family:CenturyGothic-Bold, Century Gothic;font-weight:700">i</text><text transform="matrix(0.89, 0.45, -0.45, 0.89, 492.69, 365.05)" style="font-size:10px;font-family:CenturyGothic-Bold, Century Gothic;font-weight:700">t</text><text transform="translate(495.49 366.46) rotate(24.68)" style="font-size:10px;font-family:CenturyGothic-Bold, Century Gothic;font-weight:700"> </text><text transform="translate(498.21 367.75) rotate(21.61)" style="font-size:10px;font-family:CenturyGothic-Bold, Century Gothic;font-weight:700">o</text><text transform="translate(504.34 370.13) rotate(19.58)" style="font-size:10px;font-family:CenturyGothic-Bold, Century Gothic;font-weight:700">f</text><text transform="translate(507.03 371.09) rotate(18.64)" style="font-size:10px;font-family:CenturyGothic-Bold, Century Gothic;font-weight:700"> </text><text transform="translate(509.63 371.98) rotate(17.5)" style="font-size:10px;font-family:CenturyGothic-Bold, Century Gothic;font-weight:700">P</text><text transform="translate(514.97 373.65) rotate(16.49)" style="font-size:10px;font-family:CenturyGothic-Bold, Century Gothic;font-weight:700">r</text><text transform="translate(518 374.56) rotate(15.56)" style="font-size:10px;font-family:CenturyGothic-Bold, Century Gothic;font-weight:700">e</text><text transform="translate(524.15 376.26) rotate(14.62)" style="font-size:10px;font-family:CenturyGothic-Bold, Century Gothic;font-weight:700">s</text><text transform="translate(528.37 377.36) rotate(13.91)" style="font-size:10px;font-family:CenturyGothic-Bold, Century Gothic;font-weight:700">s</text><text transform="matrix(0.97, 0.23, -0.23, 0.97, 532.64, 378.43)" style="font-size:10px;font-family:CenturyGothic-Bold, Century Gothic;font-weight:700">u</text><text transform="translate(538.46 379.77) rotate(12.37)" style="font-size:10px;font-family:CenturyGothic-Bold, Century Gothic;font-weight:700">r</text><text transform="translate(541.55 380.46) rotate(11.54)" style="font-size:10px;font-family:CenturyGothic-Bold, Century Gothic;font-weight:700">e</text><path d="M220.71,272.29s-39-26-70-53-52-32-71-36-30-5-33-7-3-4,4-3,37,1,71,16,56,36,65,42,38,24,38,24l-2,17Z" style="fill:#02a637"/><text transform="matrix(0.99, 0.16, -0.16, 0.99, 62.7, 169.16)" style="font-size:10px;font-family:CenturyGothic-Bold, Century Gothic;font-weight:700">H</text><text transform="translate(69.41 170.26) rotate(9.99)" style="font-size:10px;font-family:CenturyGothic-Bold, Century Gothic;font-weight:700">y</text><text transform="matrix(0.98, 0.19, -0.19, 0.98, 75.11, 171.26)" style="font-size:10px;font-family:CenturyGothic-Bold, Century Gothic;font-weight:700">d</text><text transform="translate(81.56 172.49) rotate(11.3)" style="font-size:10px;font-family:CenturyGothic-Bold, Century Gothic;font-weight:700">r</text><text transform="matrix(0.98, 0.21, -0.21, 0.98, 84.68, 173.1)" style="font-size:10px;font-family:CenturyGothic-Bold, Century Gothic;font-weight:700">a</text><text transform="translate(91.09 174.46) rotate(13.19)" style="font-size:10px;font-family:CenturyGothic-Bold, Century Gothic;font-weight:700">u</text><text transform="translate(96.91 175.84) rotate(14.21)" style="font-size:10px;font-family:CenturyGothic-Bold, Century Gothic;font-weight:700">l</text><text transform="translate(99.19 176.42) rotate(14.92)" style="font-size:10px;font-family:CenturyGothic-Bold, Century Gothic;font-weight:700">i</text><text transform="translate(101.48 176.99) rotate(16.61)" style="font-size:10px;font-family:CenturyGothic-Bold, Century Gothic;font-weight:700">c</text><text transform="translate(107.52 178.81) rotate(19.96)" style="font-size:10px;font-family:CenturyGothic-Bold, Century Gothic;font-weight:700">s</text><text transform="translate(111.61 180.31) rotate(21.28)" style="font-size:10px;font-family:CenturyGothic-Bold, Century Gothic;font-weight:700"> </text><text transform="translate(114.18 181.31) rotate(22.22)" style="font-size:10px;font-family:CenturyGothic-Bold, Century Gothic;font-weight:700">L</text><text transform="translate(118.24 182.97) rotate(23.18)" style="font-size:10px;font-family:CenturyGothic-Bold, Century Gothic;font-weight:700">i</text><text transform="matrix(0.91, 0.41, -0.41, 0.91, 120.41, 183.9)" style="font-size:10px;font-family:CenturyGothic-Bold, Century Gothic;font-weight:700">f</text><text transform="translate(122.94 185.02) rotate(24.91)" style="font-size:10px;font-family:CenturyGothic-Bold, Century Gothic;font-weight:700">t</text><path d="M221.71,282.29s-50,9-70,13-65,14-90,16-60,4-61,5-2,1,5,2,74,1,109-4,60-11,80-12,30-2,30-2v-20Z" style="fill:#22229f"/><text transform="translate(15.8 309.44) rotate(4.69)" style="font-size:10px;font-family:CenturyGothic-Bold, Century Gothic;font-weight:700">P</text><text transform="matrix(1, 0.03, -0.03, 1, 21.58, 309.92)" style="font-size:10px;font-family:CenturyGothic-Bold, Century Gothic;font-weight:700">a</text><text transform="matrix(1, 0, 0, 1, 28.36, 310.13)" style="font-size:10px;font-family:CenturyGothic-Bold, Century Gothic;font-weight:700">s</text><text transform="matrix(1, -0.04, 0.04, 1, 32.93, 310.12)" style="font-size:10px;font-family:CenturyGothic-Bold, Century Gothic;font-weight:700">c</text><text transform="translate(39.51 309.85) rotate(-4.76)" style="font-size:10px;font-family:CenturyGothic-Bold, Century Gothic;font-weight:700">a</text><text transform="translate(46.22 309.26) rotate(-6.42)" style="font-size:10px;font-family:CenturyGothic-Bold, Century Gothic;font-weight:700">l</text><text transform="translate(48.65 308.98) rotate(-7.18)" style="font-size:10px;font-family:CenturyGothic-Bold, Century Gothic;font-weight:700">’</text><text transform="translate(51.43 308.63) rotate(-8.03)" style="font-size:10px;font-family:CenturyGothic-Bold, Century Gothic;font-weight:700">s</text><text transform="translate(55.79 308.01) rotate(-8.62)" style="font-size:10px;font-family:CenturyGothic-Bold, Century Gothic;font-weight:700"> </text><text transform="translate(58.53 307.6) rotate(-9.18)" style="font-size:10px;font-family:CenturyGothic-Bold, Century Gothic;font-weight:700">L</text><text transform="translate(62.84 306.91) rotate(-10.01)" style="font-size:10px;font-family:CenturyGothic-Bold, Century Gothic;font-weight:700">a</text><text transform="translate(69.31 305.78) rotate(-11.06)" style="font-size:10px;font-family:CenturyGothic-Bold, Century Gothic;font-weight:700">w</text><path d="M222.71,304.29s-38,25-54,40-46,47-73,60-36,15-56,20-26,6-26,9,39-4,60-10,47-19,77-46,40-34,55-42,17-10,17-10Z" style="fill:#be2179"/><text transform="translate(28.05 422.52) rotate(-11.58)" style="font-size:10px;font-family:CenturyGothic-Bold, Century Gothic;font-weight:700">F</text><text transform="matrix(0.98, -0.21, 0.21, 0.98, 32.73, 421.56)" style="font-size:10px;font-family:CenturyGothic-Bold, Century Gothic;font-weight:700">l</text><text transform="matrix(0.98, -0.22, 0.22, 0.98, 35.05, 421.07)" style="font-size:10px;font-family:CenturyGothic-Bold, Century Gothic;font-weight:700">u</text><text transform="translate(40.89 419.73) rotate(-13.51)" style="font-size:10px;font-family:CenturyGothic-Bold, Century Gothic;font-weight:700">i</text><text transform="translate(43.17 419.2) rotate(-14.32)" style="font-size:10px;font-family:CenturyGothic-Bold, Century Gothic;font-weight:700">d</text><text transform="matrix(0.96, -0.26, 0.26, 0.96, 49.56, 417.55)" style="font-size:10px;font-family:CenturyGothic-Bold, Century Gothic;font-weight:700"> </text><text transform="translate(52.23 416.83) rotate(-16.18)" style="font-size:10px;font-family:CenturyGothic-Bold, Century Gothic;font-weight:700">P</text><text transform="matrix(0.95, -0.3, 0.3, 0.95, 57.58, 415.27)" style="font-size:10px;font-family:CenturyGothic-Bold, Century Gothic;font-weight:700">r</text><text transform="matrix(0.95, -0.32, 0.32, 0.95, 60.65, 414.34)" style="font-size:10px;font-family:CenturyGothic-Bold, Century Gothic;font-weight:700">e</text><text transform="translate(66.84 412.22) rotate(-20.76)" style="font-size:10px;font-family:CenturyGothic-Bold, Century Gothic;font-weight:700">s</text><text transform="translate(70.98 410.65) rotate(-22.19)" style="font-size:10px;font-family:CenturyGothic-Bold, Century Gothic;font-weight:700">s</text><text transform="translate(75.01 409.01) rotate(-23.63)" style="font-size:10px;font-family:CenturyGothic-Bold, Century Gothic;font-weight:700">u</text><text transform="matrix(0.91, -0.42, 0.42, 0.91, 80.48, 406.6)" style="font-size:10px;font-family:CenturyGothic-Bold, Century Gothic;font-weight:700">r</text><text transform="translate(83.37 405.29) rotate(-25.84)" style="font-size:10px;font-family:CenturyGothic-Bold, Century Gothic;font-weight:700">e</text><rect x="220.71" y="249.29" width="138" height="80" rx="12" ry="12" style="fill:#fff;stroke:#000;stroke-miterlimit:10;stroke-width:3px"/><path d="M322.21,257.62s-3.83-14.67,9.5-24,26.33-.33,28.83,6.17,2.17,17.5-1,23.17a51,51,0,0,0-5.2,13.5c-.3,1.83-27.29,1.5-27.29,1.5Z" style="fill:#fff"/><path d="M343.71,235.29c15.11-.75,16,18,13,22s-4,5-5,9-2,7-9,8-9-1-10-6-1-5-4-9S322.39,236.35,343.71,235.29Z" style="fill:none;stroke:#000;stroke-miterlimit:10;stroke-width:3px"/><path d="M331.71,275.29s2,4,5,4,10,0,12-1a7.47,7.47,0,0,0,3-3" style="fill:none;stroke:#000;stroke-linecap:round;stroke-miterlimit:10;stroke-width:3px"/><path d="M332.71,281.29s.67,1.75,4.67,2.75,9.33.25,11.33-.75a5.38,5.38,0,0,0,2.58-2.42" style="fill:none;stroke:#000;stroke-linecap:round;stroke-miterlimit:10;stroke-width:3px"/><path d="M337.71,287.29h9s-1,5-4,5C337.71,292.29,337.71,287.29,337.71,287.29Z"/><path d="M350.21,260.79s5-4,4-12-9-9-12-9-11,2-12,10,3,9,4,12,0,8,3,9,10.11.79,11-1c1-2,0-3,1-5A10,10,0,0,0,350.21,260.79Z" style="fill:url(#linear-gradient)"/><path d="M339.21,245.79s1-4-2-3-7,6-6,8,0,4,2,4,1-3,2-3,1-3,2-4Z"/><text transform="translate(261.21 292.79)" style="font-size:12px;font-family:CenturyGothic-Bold, Century Gothic;font-weight:700">Hydraulics</text></g></g></svg>