<svg xmlns="http://www.w3.org/2000/svg" viewBox="0 0 202 101.34"><title>Fluid mechanics</title><g id="Layer_2" data-name="Layer 2"><g id="Layer_1-2" data-name="Layer 1"><path d="M1,63.34s42,25,79,30,51,4,69,5,53,1,53,1v2s-70,0-102-3-41-5-67-16S.05,66,.05,66Z" style="fill:#ca1d33"/><text></text><text transform="matrix(0.94, 0.35, -0.35, 0.94, 36.45, 76.04)" style="font-size:10px;font-family:CenturyGothic, Century Gothic">M</text><text transform="translate(45.38 79.32) rotate(16.79)" style="font-size:10px;font-family:CenturyGothic, Century Gothic">e</text><text transform="matrix(0.97, 0.26, -0.26, 0.97, 51.6, 81.19)" style="font-size:10px;font-family:CenturyGothic, Century Gothic">c</text><text transform="translate(57.84 82.84) rotate(13.47)" style="font-size:10px;font-family:CenturyGothic, Century Gothic">h</text><text transform="translate(63.72 84.25) rotate(12.32)" style="font-size:10px;font-family:CenturyGothic, Century Gothic">a</text><text transform="translate(70.38 85.7) rotate(11.36)" style="font-size:10px;font-family:CenturyGothic, Century Gothic">n</text><text transform="matrix(0.98, 0.19, -0.19, 0.98, 76.36, 86.89)" style="font-size:10px;font-family:CenturyGothic, Century Gothic">i</text><text transform="translate(78.31 87.27) rotate(10.33)" style="font-size:10px;font-family:CenturyGothic, Century Gothic">c</text><text transform="translate(84.65 88.43) rotate(9.63)" style="font-size:10px;font-family:CenturyGothic, Century Gothic">a</text><text transform="translate(91.36 89.56) rotate(9.21)" style="font-size:10px;font-family:CenturyGothic, Century Gothic">l</text><text transform="translate(93.34 89.88) rotate(8.99)" style="font-size:10px;font-family:CenturyGothic, Century Gothic"> </text><text transform="matrix(0.99, 0.15, -0.15, 0.99, 96.09, 90.32)" style="font-size:10px;font-family:CenturyGothic, Century Gothic">p</text><text transform="translate(102.83 91.33) rotate(7.86)" style="font-size:10px;font-family:CenturyGothic, Century Gothic">r</text><text transform="matrix(0.99, 0.12, -0.12, 0.99, 105.75, 91.74)" style="font-size:10px;font-family:CenturyGothic, Century Gothic">o</text><text transform="matrix(0.99, 0.11, -0.11, 0.99, 112.22, 92.56)" style="font-size:10px;font-family:CenturyGothic, Century Gothic">p</text><text transform="translate(118.97 93.29) rotate(5.29)" style="font-size:10px;font-family:CenturyGothic, Century Gothic">e</text><text transform="matrix(1, 0.08, -0.08, 1, 125.43, 93.88)" style="font-size:10px;font-family:CenturyGothic, Century Gothic">r</text><text transform="matrix(1, 0.07, -0.07, 1, 128.42, 94.13)" style="font-size:10px;font-family:CenturyGothic, Century Gothic">t</text><text transform="translate(131.79 94.37) rotate(3.83)" style="font-size:10px;font-family:CenturyGothic, Century Gothic">i</text><text transform="translate(133.76 94.51) rotate(3.26)" style="font-size:10px;font-family:CenturyGothic, Century Gothic">e</text><text transform="translate(140.24 94.88) rotate(2.55)" style="font-size:10px;font-family:CenturyGothic, Century Gothic">s</text><text transform="translate(144.11 95.05) rotate(2.11)" style="font-size:10px;font-family:CenturyGothic, Century Gothic"> </text><text transform="matrix(1, 0.03, -0.03, 1, 146.85, 95.16)" style="font-size:10px;font-family:CenturyGothic, Century Gothic">o</text><text transform="translate(153.39 95.32) rotate(0.82)" style="font-size:10px;font-family:CenturyGothic, Century Gothic">f</text><text transform="translate(156.52 95.36) rotate(0.42)" style="font-size:10px;font-family:CenturyGothic, Century Gothic"> </text><text transform="translate(159.26 95.38) rotate(0.09)" style="font-size:10px;font-family:CenturyGothic, Century Gothic">l</text><text transform="translate(161.26 95.38) rotate(-0.19)" style="font-size:10px;font-family:CenturyGothic, Century Gothic">i</text><text transform="translate(163.26 95.39) rotate(-0.81)" style="font-size:10px;font-family:CenturyGothic, Century Gothic">q</text><text transform="translate(170.03 95.29) rotate(-1.74)" style="font-size:10px;font-family:CenturyGothic, Century Gothic">u</text><text transform="translate(176.1 95.1) rotate(-2.36)" style="font-size:10px;font-family:CenturyGothic, Century Gothic">i</text><text transform="matrix(1, -0.05, 0.05, 1, 178.07, 95.03)" style="font-size:10px;font-family:CenturyGothic, Century Gothic">d</text><text transform="translate(184.89 94.65) rotate(-4.07)" style="font-size:10px;font-family:CenturyGothic, Century Gothic">s</text><path d="M0,61.34s7-21,43-39,99-13,99-13v2s-64-1-88,11-25,11-38,25-15,16-15,16Z" style="fill:#ca1d33"/><text transform="translate(46.78 17.82) rotate(-19.19)" style="font-size:10px;font-family:CenturyGothic, Century Gothic">F</text><text transform="matrix(0.96, -0.29, 0.29, 0.96, 51.28, 16.28)" style="font-size:10px;font-family:CenturyGothic, Century Gothic">l</text><text transform="matrix(0.97, -0.26, 0.26, 0.97, 53.14, 15.68)" style="font-size:10px;font-family:CenturyGothic, Century Gothic">u</text><text transform="matrix(0.97, -0.22, 0.22, 0.97, 58.96, 14.17)" style="font-size:10px;font-family:CenturyGothic, Century Gothic">i</text><text transform="matrix(0.98, -0.2, 0.2, 0.98, 60.86, 13.7)" style="font-size:10px;font-family:CenturyGothic, Century Gothic">d</text><text transform="translate(67.53 12.4) rotate(-9.55)" style="font-size:10px;font-family:CenturyGothic, Century Gothic"> </text><text transform="matrix(0.99, -0.13, 0.13, 0.99, 70.19, 11.9)" style="font-size:10px;font-family:CenturyGothic, Century Gothic">m</text><text transform="translate(79.43 10.69) rotate(-5.42)" style="font-size:10px;font-family:CenturyGothic, Century Gothic">e</text><text transform="matrix(1, -0.07, 0.07, 1, 85.84, 10.09)" style="font-size:10px;font-family:CenturyGothic, Century Gothic">c</text><text transform="translate(92.28 9.66) rotate(-3.26)" style="font-size:10px;font-family:CenturyGothic, Century Gothic">h</text><text transform="matrix(1, -0.05, 0.05, 1, 98.36, 9.31)" style="font-size:10px;font-family:CenturyGothic, Century Gothic">a</text><text transform="matrix(1, -0.04, 0.04, 1, 105.14, 8.99)" style="font-size:10px;font-family:CenturyGothic, Century Gothic">n</text><text transform="matrix(1, -0.03, 0.03, 1, 111.24, 8.77)" style="font-size:10px;font-family:CenturyGothic, Century Gothic">i</text><text transform="matrix(1, -0.02, 0.02, 1, 113.21, 8.71)" style="font-size:10px;font-family:CenturyGothic, Century Gothic">c</text><text transform="translate(119.65 8.6) rotate(-0.2)" style="font-size:10px;font-family:CenturyGothic, Century Gothic">s</text></g></g></svg>