<svg xmlns="http://www.w3.org/2000/svg" viewBox="0 0 202 106.39"><title>Fluid mechanics</title><g id="Layer_2" data-name="Layer 2"><g id="Layer_1-2" data-name="Layer 1"><path d="M1,68.39s42,25,79,30,51,4,69,5,53,1,53,1v2s-70,0-102-3-41-5-67-16S.05,71.05.05,71.05Z" style="fill:#ca1d33"/><path d="M0,66.39s7-21,43-39,99-13,99-13v2s-64-1-88,11-25,11-38,25-15,16-15,16Z" style="fill:#ca1d33"/><text></text><text transform="matrix(0.94, 0.35, -0.35, 0.94, 36.45, 81.09)" style="font-size:10px;font-family:CenturyGothic, Century Gothic">M</text><text transform="translate(45.38 84.37) rotate(16.79)" style="font-size:10px;font-family:CenturyGothic, Century Gothic">e</text><text transform="matrix(0.97, 0.26, -0.26, 0.97, 51.6, 86.24)" style="font-size:10px;font-family:CenturyGothic, Century Gothic">c</text><text transform="translate(57.84 87.89) rotate(13.47)" style="font-size:10px;font-family:CenturyGothic, Century Gothic">h</text><text transform="translate(63.72 89.3) rotate(12.32)" style="font-size:10px;font-family:CenturyGothic, Century Gothic">a</text><text transform="translate(70.38 90.75) rotate(11.36)" style="font-size:10px;font-family:CenturyGothic, Century Gothic">n</text><text transform="matrix(0.98, 0.19, -0.19, 0.98, 76.36, 91.94)" style="font-size:10px;font-family:CenturyGothic, Century Gothic">i</text><text transform="translate(78.31 92.32) rotate(10.33)" style="font-size:10px;font-family:CenturyGothic, Century Gothic">c</text><text transform="translate(84.65 93.48) rotate(9.63)" style="font-size:10px;font-family:CenturyGothic, Century Gothic">a</text><text transform="translate(91.36 94.61) rotate(9.21)" style="font-size:10px;font-family:CenturyGothic, Century Gothic">l</text><text transform="translate(93.34 94.93) rotate(8.99)" style="font-size:10px;font-family:CenturyGothic, Century Gothic"> </text><text transform="matrix(0.99, 0.15, -0.15, 0.99, 96.09, 95.36)" style="font-size:10px;font-family:CenturyGothic, Century Gothic">p</text><text transform="translate(102.83 96.38) rotate(7.86)" style="font-size:10px;font-family:CenturyGothic, Century Gothic">r</text><text transform="matrix(0.99, 0.12, -0.12, 0.99, 105.75, 96.79)" style="font-size:10px;font-family:CenturyGothic, Century Gothic">o</text><text transform="matrix(0.99, 0.11, -0.11, 0.99, 112.22, 97.61)" style="font-size:10px;font-family:CenturyGothic, Century Gothic">p</text><text transform="translate(118.97 98.34) rotate(5.29)" style="font-size:10px;font-family:CenturyGothic, Century Gothic">e</text><text transform="matrix(1, 0.08, -0.08, 1, 125.43, 98.93)" style="font-size:10px;font-family:CenturyGothic, Century Gothic">r</text><text transform="matrix(1, 0.07, -0.07, 1, 128.42, 99.17)" style="font-size:10px;font-family:CenturyGothic, Century Gothic">t</text><text transform="translate(131.79 99.42) rotate(3.83)" style="font-size:10px;font-family:CenturyGothic, Century Gothic">i</text><text transform="translate(133.76 99.56) rotate(3.26)" style="font-size:10px;font-family:CenturyGothic, Century Gothic">e</text><text transform="translate(140.24 99.92) rotate(2.55)" style="font-size:10px;font-family:CenturyGothic, Century Gothic">s</text><text transform="translate(144.11 100.09) rotate(2.11)" style="font-size:10px;font-family:CenturyGothic, Century Gothic"> </text><text transform="matrix(1, 0.03, -0.03, 1, 146.85, 100.2)" style="font-size:10px;font-family:CenturyGothic, Century Gothic">o</text><text transform="translate(153.39 100.36) rotate(0.82)" style="font-size:10px;font-family:CenturyGothic, Century Gothic">f</text><text transform="translate(156.52 100.41) rotate(0.42)" style="font-size:10px;font-family:CenturyGothic, Century Gothic"> </text><text transform="translate(159.26 100.43) rotate(0.09)" style="font-size:10px;font-family:CenturyGothic, Century Gothic">l</text><text transform="translate(161.26 100.43) rotate(-0.19)" style="font-size:10px;font-family:CenturyGothic, Century Gothic">i</text><text transform="translate(163.26 100.44) rotate(-0.81)" style="font-size:10px;font-family:CenturyGothic, Century Gothic">q</text><text transform="translate(170.03 100.34) rotate(-1.74)" style="font-size:10px;font-family:CenturyGothic, Century Gothic">u</text><text transform="translate(176.1 100.14) rotate(-2.36)" style="font-size:10px;font-family:CenturyGothic, Century Gothic">i</text><text transform="matrix(1, -0.05, 0.05, 1, 178.07, 100.08)" style="font-size:10px;font-family:CenturyGothic, Century Gothic">d</text><text transform="translate(184.89 99.7) rotate(-4.07)" style="font-size:10px;font-family:CenturyGothic, Century Gothic">s</text><text transform="matrix(0.93, -0.37, 0.37, 0.93, 46.98, 20.85)" style="font-size:10px;font-family:CenturyGothic, Century Gothic">F</text><text transform="matrix(0.94, -0.33, 0.33, 0.94, 51.41, 19.14)" style="font-size:10px;font-family:CenturyGothic, Century Gothic">l</text><text transform="matrix(0.96, -0.29, 0.29, 0.96, 53.25, 18.46)" style="font-size:10px;font-family:CenturyGothic, Century Gothic">u</text><text transform="matrix(0.96, -0.26, 0.26, 0.96, 59, 16.73)" style="font-size:10px;font-family:CenturyGothic, Century Gothic">i</text><text transform="matrix(0.97, -0.23, 0.23, 0.97, 60.88, 16.17)" style="font-size:10px;font-family:CenturyGothic, Century Gothic">d</text><text transform="matrix(0.98, -0.21, 0.21, 0.98, 67.49, 14.61)" style="font-size:10px;font-family:CenturyGothic, Century Gothic"> </text><text transform="matrix(0.99, -0.17, 0.17, 0.99, 70.14, 14.01)" style="font-size:10px;font-family:CenturyGothic, Century Gothic">m</text><text transform="matrix(0.99, -0.13, 0.13, 0.99, 79.32, 12.43)" style="font-size:10px;font-family:CenturyGothic, Century Gothic">e</text><text transform="matrix(0.99, -0.11, 0.11, 0.99, 85.7, 11.58)" style="font-size:10px;font-family:CenturyGothic, Century Gothic">c</text><text transform="matrix(1, -0.1, 0.1, 1, 92.11, 10.89)" style="font-size:10px;font-family:CenturyGothic, Century Gothic">h</text><text transform="matrix(1, -0.09, 0.09, 1, 98.18, 10.3)" style="font-size:10px;font-family:CenturyGothic, Century Gothic">a</text><text transform="matrix(1, -0.08, 0.08, 1, 104.94, 9.71)" style="font-size:10px;font-family:CenturyGothic, Century Gothic">n</text><text transform="matrix(1, -0.07, 0.07, 1, 111.03, 9.26)" style="font-size:10px;font-family:CenturyGothic, Century Gothic">i</text><text transform="matrix(1, -0.06, 0.06, 1, 112.99, 9.11)" style="font-size:10px;font-family:CenturyGothic, Century Gothic">c</text><text transform="matrix(1, -0.04, 0.04, 1, 119.42, 8.75)" style="font-size:10px;font-family:CenturyGothic, Century Gothic">s</text></g></g></svg>