<svg xmlns="http://www.w3.org/2000/svg" viewBox="0 0 20 20"><title>PDF</title><g id="Layer_2" data-name="Layer 2"><g id="Layer_1-2" data-name="Layer 1"><g id="Layer_1-2-2" data-name="Layer 1-2"><circle cx="10" cy="10" r="9.5" style="fill:#3e1c18;stroke:#ef2707;stroke-miterlimit:10"/></g><path d="M14.69,11.18a6.43,6.43,0,0,0-3.09,0,6.86,6.86,0,0,1-.67-.69A11.56,11.56,0,0,1,9.9,9s.3-1.07.35-1.33.54-3.35-1-2.8,0,3.64,0,3.64-.07.25-.44,1.22S7.63,12.3,7.63,12.3a4.91,4.91,0,0,1-.65.24c-.28.07-2.52,1-2.36,1.89s.84,1,1.86.41a7.76,7.76,0,0,0,2-2.65l1.23-.35c.61-.17,1.74-.39,1.74-.39a7.29,7.29,0,0,0,1.07.77,3.38,3.38,0,0,0,2.23.47C15.18,12.62,16,11.63,14.69,11.18Zm-8,2.5a3.23,3.23,0,0,1-1.34,1.22c-.3.07-.78-.24-.17-.93a7.61,7.61,0,0,1,2.26-1.33S7.27,12.94,6.71,13.68Zm2.2-7.55c-.08-1.07.39-1.07.59-1s.4.24.32.94S9.4,8.14,9.4,8.14A7,7,0,0,1,8.91,6.13Zm1.14,5.35A8.41,8.41,0,0,0,8.62,12s.18-.39.45-.85a15.6,15.6,0,0,0,.72-1.89,3.55,3.55,0,0,0,.54.89,14.32,14.32,0,0,0,1,1.12Zm4.16.86c-1.08.34-2.37-.94-2.37-.94a6.35,6.35,0,0,1,1.93-.14C14.66,11.38,15,12.09,14.21,12.34Z" style="fill:#fff"/></g></g></svg>